<svg fill="none" stroke-width="0" viewBox="-30 0 700 320" xmlns="http://www.w3.org/2000/svg">
  <path d="M152.1 140.2c-3.5-12.1-7.8-33.2-7.8-33.2h-.5s-4.3 21.1-7.8 33.2l-11.1 37.5H163zM616 0H336v320h280a24 24 0 0024-24V24a24 24 0 00-24-24zm-24 120a12 12 0 01-12 12h-11.4a179.2 179.2 0 01-42.7 69.9 310 310 0 0026.1 18 12 12 0 014.1 16.2l-7.9 13.9a12 12 0 01-16.7 4.3 348 348 0 01-35.4-24.9 352.7 352.7 0 01-35.4 24.9A12 12 0 01444 250l-7.9-13.9a12 12 0 014.2-16.2c9.3-5.7 18-11.7 26.1-18a232 232 0 01-21-25.7 12 12 0 013.7-17.1l6.5-3.9 7.3-4.3a12 12 0 0116 3.4c5 7 10.8 14 17.4 20.9a153 153 0 0030-43.2H412a12 12 0 01-12-12v-16a12 12 0 0112-12h64V76a12 12 0 0112-12h16a12 12 0 0112 12v16h64a12 12 0 0112 12zM0 24v272a24 24 0 0024 24h280V0H24A24 24 0 000 24zm58.9 216.1L116.4 71a12 12 0 0111.4-8.1h32.5c5.1 0 9.7 3.3 11.4 8.1l57.5 169.1a12 12 0 01-11.4 15.9h-22.9a12 12 0 01-11.5-8.6l-9.4-31.9h-60.2l-9.1 31.8a12 12 0 01-11.5 8.7H70.3a12 12 0 01-11.4-15.9z" fill="#000"/>
</svg>